<mxfile host="32291d0b-b2a0-4d75-8acb-655b39e9cc04" modified="2020-08-08T00:51:43.475Z" agent="5.0 (Windows NT 10.0; Win64; x64) AppleWebKit/537.36 (KHTML, like Gecko) Code/1.47.3 Chrome/78.0.3904.130 Electron/7.3.2 Safari/537.36" etag="9e_HKk1tFqAkUExbDEB_" version="13.1.3" pages="2">
    <diagram id="VyXRofjzXL8XZx9wx3xV" name="第 1 页">
        <mxGraphModel dx="3900" dy="2380" grid="1" gridSize="10" guides="1" tooltips="1" connect="1" arrows="1" fold="1" page="1" pageScale="1" pageWidth="2336" pageHeight="1654" math="0" shadow="0">
            <root>
                <mxCell id="1htUWmVCTT_Q_1_7ZCfj-0"/>
                <mxCell id="1htUWmVCTT_Q_1_7ZCfj-1" parent="1htUWmVCTT_Q_1_7ZCfj-0"/>
            </root>
        </mxGraphModel>
    </diagram>
    <diagram id="M7mQp7mT5RPUtRg1Xvtz" name="第 2 页">
        <mxGraphModel dx="1170" dy="714" grid="1" gridSize="10" guides="1" tooltips="1" connect="1" arrows="1" fold="1" page="1" pageScale="1" pageWidth="2336" pageHeight="1654" math="0" shadow="0">
            <root>
                <mxCell id="nZqJup_3ny94a1IBjW---0"/>
                <mxCell id="nZqJup_3ny94a1IBjW---1" parent="nZqJup_3ny94a1IBjW---0"/>
            </root>
        </mxGraphModel>
    </diagram>
</mxfile>